<?xml version="1.0" encoding="UTF-8" standalone="no"?>
<!DOCTYPE svg PUBLIC "-//W3C//DTD SVG 1.1//EN" "http://www.w3.org/Graphics/SVG/1.1/DTD/svg11.dtd">
<svg width="100%" height="100%" viewBox="0 0 450 450" version="1.1" xmlns="http://www.w3.org/2000/svg" xmlns:xlink="http://www.w3.org/1999/xlink" xml:space="preserve" xmlns:serif="http://www.serif.com/" style="fill-rule:evenodd;clip-rule:evenodd;stroke-linejoin:round;stroke-miterlimit:2;">
    <g transform="matrix(0.907507,0.0147453,-0.0147453,0.907507,-405.984,-135.37)">
        <circle cx="710.5" cy="325.5" r="186.5" style="fill:rgb(254,226,142);"/>
    </g>
    <g transform="matrix(1,0,0,1,-527,-146)">
        <path d="M704,465C712.167,496.667 731.5,564.167 729,603C726.793,637.288 682.5,636.833 689,698C690.727,714.255 703.858,733.417 720,736C761.667,742.667 866.007,739.197 939,738C1030.5,736.5 1206.67,744 1269,727C1301.51,718.135 1309.14,669.471 1313,636C1317,601.333 1312.61,553.362 1293,519C1272.17,482.5 1244.21,432.855 1188,417C1105.9,393.847 1030.05,455.556 936,439C878.14,428.815 811.203,375.732 773,345C747.759,324.694 700.322,450.739 704,465Z" style="fill:rgb(148,91,49);"/>
    </g>
    <g transform="matrix(1.10269,-0.171045,0.167936,1.08264,-676.03,-34.9541)">
        <path d="M702,239C689.143,231.528 674.672,222.151 666.176,212.412C658.448,203.554 656.552,179.97 651.023,180.568C645.494,181.166 633.787,196.937 633,216C632.499,228.129 640.812,250.004 653,261C668.333,274.833 701.06,286.221 725,299C749.667,312.167 778.667,337.167 801,340C807.717,340.852 826.893,360.48 861.114,338.201C873.886,329.886 901.833,300.167 891,285C888.775,281.885 863.845,293.088 855,297C843.21,302.215 824.029,301.318 810,296C784.5,286.333 725.971,252.931 702,239Z" style="fill:rgb(198,186,178);"/>
    </g>
    <g transform="matrix(1,0,0,1,-527,-146)">
        <path d="M604,503C599.167,506.833 589.333,520.167 582,524C575.474,527.411 566.792,523.157 560,526C552.833,529 540.5,539.333 539,542C537.5,544.667 551.667,539.333 551,542C550.333,544.667 538.667,552.5 535,558C531.667,563 527.286,577.103 529,575C532.667,570.5 548.167,561.5 551,561C553.833,560.5 543.5,572 546,572C548.5,572 561.833,564.5 566,561C568.854,558.603 569,552 571,551C573,550 575.596,556.202 578,555C580.667,553.667 585.5,547.667 587,543C588.5,538.333 584.354,531.631 587,527C591,520 608.167,505 611,501C612.403,499.02 605.901,501.492 604,503Z" style="fill:rgb(253,206,61);"/>
    </g>
    <g transform="matrix(1.10269,-0.171045,0.167936,1.08264,-676.03,-34.9541)">
        <path d="M655.122,316.022C657.85,316.941 607.178,376.803 602.014,403.665C593.507,447.924 615.745,471.213 654.014,474.006C686.469,476.374 756.546,449.082 770,434C796.167,404.667 787.274,365.117 791.909,370.378C799.183,378.636 806.862,382.736 816,384C825.182,385.27 839.574,385.459 847,378C855.398,369.564 869.629,349.125 866.389,333.386C864.548,324.438 848.587,322.263 837.733,323.966C821.496,326.514 797.08,338.636 801.641,330.014C812.308,309.848 810.626,297.89 809,294C805.094,284.653 768.417,264.587 759.735,259.708C744.595,251.198 712.232,236.163 704,241C691.344,248.436 676.953,263.206 676,275C675.89,276.361 643.001,233.998 624.168,244.498C616.277,248.897 612.738,284.17 620.831,296.091C625.463,302.915 636.722,309.827 655.122,316.022Z" style="fill:rgb(173,110,65);"/>
    </g>
    <g transform="matrix(1,0,0,1,-527,-146)">
        <path d="M898.355,642.026C902.416,687.696 1022.68,716.205 1074.96,730.827C1118.97,743.134 1220.32,753.74 1212.05,729.756C1207.12,715.489 1189.31,689.175 1199.58,694.732C1231.5,711.989 1360.81,729.883 1333.04,688.387C1324.35,675.4 1293.97,645.171 1307.76,648.924C1375.07,667.242 1446.38,642.144 1416.35,619.71C1373.49,587.691 1151.58,475.89 1050.6,456.807C972.754,442.095 894.294,596.356 898.355,642.026Z" style="fill:rgb(255,199,200);"/>
    </g>
    <g transform="matrix(1,0,0,1,-527,-146)">
        <path d="M780.048,561.123C849.962,676.253 938.713,696.238 953.363,686.741C961.047,681.76 937.522,656.627 945.624,660.869C1001.13,689.932 1081,698.364 1080.38,678.811C1079.86,662.247 1037.47,635.174 1049.9,639.098C1092.27,652.481 1188.04,664.976 1197.12,643.614C1203.31,629.067 1130.24,597.266 1141.29,589.934C1152.35,582.602 1267.94,623.183 1263.44,599.622C1252.59,542.788 1043.89,436.084 963.321,429.668C888.377,423.699 763.292,533.53 780.048,561.123Z" style="fill:rgb(247,135,137);"/>
    </g>
    <g transform="matrix(1,0,0,1,-527,-146)">
        <path d="M892.827,405.885C872.212,403.051 847.473,407.075 825.631,415.267C803.618,423.523 784.547,436.014 775.605,449.984C757.79,477.817 761.609,544.088 785.939,572.88C810.268,601.673 888.766,620.986 921.581,622.74C944.305,623.955 1000.75,604.384 1018.27,598.233C1119.9,562.551 1125.5,530.171 1089.1,493.079C1057.74,461.132 945.076,413.067 892.827,405.885Z" style="fill:rgb(231,47,50);"/>
    </g>
    <g transform="matrix(1.31384,-0.203799,0.259608,1.67363,-865.417,-219.215)">
        <path d="M764.203,362.466C761.847,363.861 759.374,365.057 756.832,365.994C755,366.67 753.136,367.199 751.28,367.566C749.603,367.898 747.926,368.086 746.295,368.137C744.516,368.192 742.783,368.091 741.138,367.813C737.62,367.216 734.437,365.965 731.99,363.838C729.202,361.414 727.272,357.941 726.866,353.136C726.771,352.645 727.201,352.185 727.827,352.11C728.453,352.035 729.038,352.373 729.134,352.864C730.768,358.294 734.151,361.332 738.434,362.707C740.505,363.371 742.781,363.564 745.181,363.493C746.73,363.447 748.323,363.275 749.95,363.01C751.922,362.689 753.94,362.256 755.95,361.652C757.913,361.062 759.879,360.386 761.781,359.544C762.528,359.218 763.535,359.01 764.818,359.4C765.623,359.644 766.681,360.124 768.006,360.642C769.76,361.328 772.011,362.093 774.903,362.103C775.534,362.061 776.089,362.429 776.143,362.924C776.196,363.419 775.727,363.855 775.097,363.897C773.095,364.175 771.291,364.1 769.672,363.905C766.747,363.551 763.497,361.663 763.429,362.595C763.411,362.846 763.99,362.59 764.203,362.466ZM764.203,362.466C764.208,362.463 764.213,362.459 764.219,362.456C764.214,362.459 764.208,362.463 764.203,362.466Z" style="fill:rgb(95,70,52);"/>
    </g>
    <g transform="matrix(1.10269,-0.171045,0.167936,1.08264,-676.03,-34.9541)">
        <path d="M851.761,339.009C852.098,339.115 852.287,339.479 852.183,339.822C852.079,340.165 851.721,340.358 851.384,340.252C849.293,339.73 845.918,338.905 842.511,338.675C840.561,338.543 838.612,338.626 836.919,339.13C835.029,339.667 832.466,340.592 829.548,341.673C827.991,342.25 826.339,342.877 824.638,343.518C823.027,344.126 821.377,344.756 819.726,345.371C817.203,346.31 814.686,347.23 812.357,348.132C807.891,349.862 804.112,351.432 802.302,352.651C801.53,353.161 801.906,354.076 802.388,355.065C803.282,356.898 804.946,358.885 806.033,360.18C806.277,360.439 806.269,360.851 806.015,361.099C805.76,361.348 805.356,361.34 805.112,361.081C803.542,359.593 801.017,357.132 800.053,354.986C799.283,353.272 799.487,351.735 800.842,350.61C802.634,349.149 806.413,347.019 810.994,344.845C813.185,343.804 815.553,342.74 817.977,341.768C820.365,340.81 822.801,339.929 825.133,339.16C829.525,337.712 833.55,336.67 836.225,336.13C838.261,335.757 840.546,335.859 842.802,336.275C846.29,336.918 849.668,338.208 851.761,339.009Z" style="fill:rgb(95,70,52);"/>
    </g>
    <g transform="matrix(1.11567,-0.0212762,0.0222708,1.16783,-626.965,-173.373)">
        <path d="M637.267,439.622C637.233,439.52 637.226,439.409 637.252,439.297C637.32,439.001 637.597,438.799 637.903,438.802C638.024,438.648 638.144,438.498 638.262,438.352C639.347,437.017 640.384,436.029 641.38,435.656C642.579,435.213 644.345,435.632 645.773,436.639C647.014,437.514 647.99,438.672 648.18,439.324C648.335,439.855 648.27,440.285 648.062,440.59C646.552,442.795 645.007,443.202 643.454,442.858C642.605,442.67 641.737,442.24 640.877,441.718C640.669,441.592 640.462,441.461 640.256,441.33C640.171,441.458 640.086,441.587 640,441.718C638.561,443.893 636.828,446.373 634.477,448.01C632.673,449.265 630.512,450.017 627.927,449.948C626.021,449.857 624.393,448.927 623.1,447.428C622.056,446.219 621.208,444.649 620.53,443.111C619.895,441.67 619.425,440.272 618.978,439.397C616.913,439.938 615.076,439.913 613.843,439.558C612.949,439.301 612.348,438.82 612,438.299C611.536,437.604 611.521,436.744 612.099,435.764C612.563,434.979 613.581,434.071 615.334,433.12C616.337,432.576 617.539,432.859 618.683,433.744C620.091,434.832 621.436,437.053 621.73,437.474C622.628,438.791 623.76,441.866 625.428,444.144C626.156,445.137 626.939,446.032 628.073,446.052C630.304,446.154 632.011,445.199 633.445,443.95C634.94,442.648 636.172,441.042 637.267,439.622ZM618.25,438.049C617.969,437.551 617.611,436.966 617.21,436.452C616.992,436.171 616.78,435.9 616.541,435.712C616.488,435.67 616.413,435.601 616.38,435.569C615.431,435.977 614.752,436.362 614.334,436.764C614.184,436.909 614.052,437.026 613.999,437.161C613.984,437.199 613.925,437.22 613.942,437.252C614.104,437.565 614.546,437.764 615.132,437.909C615.973,438.116 617.044,438.182 618.25,438.049ZM641.138,440.011C642.047,440.449 642.947,440.859 643.807,440.96C644.505,441.042 645.089,440.737 645.65,439.893C645.23,439.429 644.398,438.878 643.584,438.534C643.226,438.382 642.88,438.22 642.62,438.344C642.275,438.506 642,438.881 641.662,439.305C641.488,439.523 641.314,439.759 641.138,440.011Z" style="fill:rgb(95,70,52);"/>
    </g>
    <g transform="matrix(1.10269,-0.171045,0.167936,1.08264,-676.03,-34.9541)">
        <path d="M655.122,316.022C657.85,316.941 674.007,276.595 676,275C677.054,274.156 643.001,233.998 624.168,244.498C616.277,248.897 612.738,284.17 620.831,296.091C625.463,302.915 636.722,309.827 655.122,316.022Z" style="fill:rgb(148,91,49);"/>
    </g>
</svg>
